<svg xmlns="http://www.w3.org/2000/svg" data-name="Layer 1" viewBox="0 0 896.11 238.64"><defs><linearGradient id="a" x1="-15.41" x2="113.08" y1="-1445.84" y2="-1445.84" gradientTransform="matrix(1 0 0 -1 0 -1325.74)" gradientUnits="userSpaceOnUse"><stop offset=".42" stop-color="#3cc3d9"/><stop offset=".47" stop-color="#3bbbd7"/><stop offset=".54" stop-color="#38b2d6"/><stop offset=".59" stop-color="#36acd5"/><stop offset=".71" stop-color="#2d95d2"/></linearGradient></defs><path d="m299.54 187.2-42.4-58.3v58.3h-42.6V0h42.6v104.7l42.1-56.6h52.6L294 117.9l58.3 69.3ZM578.51 48.2l-37.6 139h-47.2L471.81 97l-22.7 90.2h-46.8l-37.9-139H407l19.7 99.4 23.4-99.4h45.1l23.7 98.9 19.4-98.9ZM598.61 78c5.4-10.8 12.7-19.1 22.1-24.9a57.66 57.66 0 0 1 31.1-8.7q14.7 0 25.8 6a44.13 44.13 0 0 1 17.1 15.7V46.4h42.6v139h-42.6v-19.7a46.19 46.19 0 0 1-17.3 15.7q-11.1 6-25.8 6a56.46 56.46 0 0 1-30.9-8.8c-9.3-5.9-16.7-14.3-22.1-25.2s-8.1-23.5-8.1-37.8 2.7-26.8 8.1-37.6Zm87.2 12.7a30.07 30.07 0 0 0-43.2-.1c-5.9 6.1-8.8 14.4-8.8 25s2.9 19.1 8.8 25.3a29.84 29.84 0 0 0 43.2.1c5.9-6.1 8.8-14.5 8.8-25.2 0-10.5-2.9-18.9-8.8-25.1ZM757.51 78c5.4-10.8 12.7-19.1 22.1-24.9a57.66 57.66 0 0 1 31.1-8.7 54.71 54.71 0 0 1 25 5.7 45.51 45.51 0 0 1 17.8 15.4V1h42.6v184.4h-42.6v-19.9a43.13 43.13 0 0 1-17.1 15.9q-11.1 6-25.8 6a56.65 56.65 0 0 1-31.1-8.8c-9.3-5.9-16.7-14.3-22.1-25.2s-8.1-23.5-8.1-37.8 2.8-26.8 8.2-37.6Zm87.2 12.7a30.07 30.07 0 0 0-43.2-.1c-5.9 6.1-8.8 14.4-8.8 25s2.9 19.1 8.8 25.3a29.84 29.84 0 0 0 43.2.1c5.9-6.1 8.8-14.5 8.8-25.2 0-10.5-2.9-18.9-8.8-25.1Z" style="fill:#270d33"/><path d="m128.49 1.56-82.5 237.08H0L82.26 1.56h46.23z" style="fill:url(#a)"/><path d="M130.86 17.92 110 77.66l17.54 41.25h-32l-12.33 35.8h59.51L156 187.19h46.47ZM896.11 202.84v35.8H780.18v-35.8Z" style="fill:#270d33"/></svg>